<?xml version="1.0" standalone="no"?><svg xmlns="http://www.w3.org/2000/svg" viewBox="0 0 1440 320"><path fill="#0099ff" fill-opacity="1" d="M0,128L17.1,128C34.3,128,69,128,103,106.7C137.1,85,171,43,206,53.3C240,64,274,128,309,133.3C342.9,139,377,85,411,74.7C445.7,64,480,96,514,101.3C548.6,107,583,85,617,90.7C651.4,96,686,128,720,149.3C754.3,171,789,181,823,176C857.1,171,891,149,926,133.3C960,117,994,107,1029,106.7C1062.9,107,1097,117,1131,106.7C1165.7,96,1200,64,1234,74.7C1268.6,85,1303,139,1337,154.7C1371.4,171,1406,149,1423,138.7L1440,128L1440,320L1422.9,320C1405.7,320,1371,320,1337,320C1302.9,320,1269,320,1234,320C1200,320,1166,320,1131,320C1097.1,320,1063,320,1029,320C994.3,320,960,320,926,320C891.4,320,857,320,823,320C788.6,320,754,320,720,320C685.7,320,651,320,617,320C582.9,320,549,320,514,320C480,320,446,320,411,320C377.1,320,343,320,309,320C274.3,320,240,320,206,320C171.4,320,137,320,103,320C68.6,320,34,320,17,320L0,320Z"></path></svg>